<?xml version="1.0" encoding="UTF-8" ?>
<!DOCTYPE svg PUBLIC "-//W3C//DTD SVG 1.1//EN" "http://www.w3.org/Graphics/SVG/1.1/DTD/svg11.dtd">
<svg width="300pt" height="275pt" viewBox="0 0 300 275" version="1.1" xmlns="http://www.w3.org/2000/svg">
<path fill="#ffffff" d=" M 0.00 0.00 L 144.87 0.00 C 146.58 1.41 148.33 2.78 150.19 4.00 C 149.16 5.71 146.41 7.76 148.18 9.79 C 149.45 10.79 150.79 9.70 152.11 9.40 C 152.18 8.08 152.31 6.77 152.51 5.46 C 161.02 7.76 169.85 4.74 176.93 0.00 L 186.57 0.00 C 185.73 1.48 184.96 3.00 184.20 4.51 C 177.03 4.56 169.55 7.26 165.21 13.20 C 160.41 20.05 159.67 29.11 161.74 37.07 C 163.23 44.83 166.62 52.20 171.74 58.24 C 175.95 64.94 181.22 72.48 179.52 80.83 C 178.15 85.81 173.65 91.09 168.00 90.29 C 165.47 90.18 164.25 87.85 163.17 85.93 C 165.43 86.77 167.99 89.60 170.25 87.22 C 172.70 83.25 167.18 79.24 163.72 81.68 C 160.46 83.81 161.71 88.71 164.78 90.36 C 169.35 93.04 175.05 91.00 178.85 87.89 C 182.99 84.63 185.62 79.89 186.70 74.77 C 188.66 66.05 188.12 56.92 186.32 48.22 C 185.00 46.50 183.74 44.75 182.54 42.94 C 183.81 44.53 185.07 46.12 186.30 47.74 C 184.90 39.22 185.41 30.35 188.18 22.15 C 189.77 17.58 192.27 13.13 196.18 10.16 C 198.79 8.14 202.15 7.69 205.09 6.36 C 207.71 4.64 209.80 2.24 211.98 0.01 L 210.66 0.00 L 214.72 0.00 C 212.64 1.92 210.66 3.94 208.57 5.84 C 216.04 5.18 224.25 8.05 228.17 14.77 C 230.62 18.52 229.77 23.14 229.35 27.31 C 230.74 24.11 232.07 20.89 233.19 17.59 C 234.62 17.76 236.48 19.16 237.42 17.42 C 238.88 15.39 235.26 14.82 233.98 14.63 C 234.55 9.67 234.12 4.67 232.31 0.00 L 232.63 0.00 C 233.92 2.91 235.60 6.25 239.10 6.82 C 243.66 8.14 248.01 4.41 248.75 0.00 L 271.65 0.00 C 275.17 2.06 278.81 4.16 282.93 4.69 C 288.62 5.87 294.35 4.48 300.00 3.79 L 300.00 4.84 C 290.35 9.60 280.59 15.89 275.79 25.92 C 269.39 39.17 270.42 54.27 267.61 68.40 C 266.31 74.60 264.47 81.20 259.58 85.59 C 257.61 87.76 254.69 89.78 254.68 93.00 C 255.52 97.77 260.85 93.93 262.92 91.96 C 275.19 79.83 287.82 68.06 300.00 55.85 L 300.00 73.66 C 294.46 71.84 288.18 72.11 283.08 75.08 C 275.21 79.33 270.97 89.22 273.38 97.84 C 275.05 104.13 279.52 110.32 286.13 111.88 C 290.73 112.91 295.47 113.33 300.00 114.72 L 300.00 134.57 C 295.20 122.27 285.22 112.81 274.44 105.61 C 268.99 102.12 262.89 99.86 257.06 97.10 C 265.26 102.31 272.96 109.15 276.59 118.39 C 279.45 125.15 279.51 132.61 279.07 139.81 C 286.31 140.90 293.53 142.71 300.00 146.23 L 300.00 149.99 C 292.79 145.52 284.36 143.54 276.01 142.69 C 265.69 141.81 255.30 142.36 245.08 143.87 C 240.02 144.77 234.58 143.73 230.57 140.42 C 226.82 137.67 225.62 132.78 222.07 129.86 C 217.59 126.37 210.46 127.50 207.18 132.11 C 203.64 137.10 203.72 143.58 204.39 149.40 C 205.35 155.89 207.85 162.56 213.01 166.87 C 218.79 171.75 226.61 173.39 234.00 173.44 C 246.06 173.27 257.74 169.38 268.46 164.05 C 262.29 165.37 256.26 167.40 249.94 167.92 C 236.61 169.43 221.86 165.71 212.98 155.12 C 217.12 157.96 220.99 161.24 225.59 163.36 C 231.53 166.40 238.32 167.56 244.96 167.14 C 257.76 166.41 270.04 162.28 281.86 157.57 C 287.61 155.18 293.94 154.99 300.00 156.15 L 300.00 159.77 C 288.58 155.81 277.33 162.46 267.71 167.97 C 269.04 170.86 270.74 174.08 274.17 174.79 C 284.41 177.93 295.40 171.72 300.00 162.48 L 300.00 168.53 C 298.95 170.57 296.89 172.47 297.21 174.97 C 297.80 176.76 299.03 178.23 300.00 179.83 L 300.00 219.60 C 297.46 221.49 294.76 223.40 293.27 226.28 C 290.15 231.96 290.32 238.64 288.81 244.79 C 289.40 249.75 287.77 254.56 285.07 258.67 C 290.23 258.20 295.14 259.93 300.00 261.39 L 300.00 275.00 L 0.00 275.00 L 0.00 0.00 Z" />
<path fill="#748e9c" d=" M 144.87 0.00 L 148.30 0.00 L 146.48 0.54 C 152.04 4.11 159.06 3.35 164.50 0.00 L 176.93 0.00 C 169.85 4.74 161.02 7.76 152.51 5.46 C 152.31 6.77 152.18 8.08 152.11 9.40 C 150.79 9.70 149.45 10.79 148.18 9.79 C 146.41 7.76 149.16 5.71 150.19 4.00 C 148.33 2.78 146.58 1.41 144.87 0.00 Z" />
<path fill="#ffffff" d=" M 148.30 0.00 L 164.50 0.00 C 159.06 3.35 152.04 4.11 146.48 0.54 L 148.30 0.00 Z" />
<path fill="#748e9c" d=" M 186.57 0.00 L 210.66 0.00 L 211.98 0.01 C 209.80 2.24 207.71 4.64 205.09 6.36 C 202.15 7.69 198.79 8.14 196.18 10.16 C 192.27 13.13 189.77 17.58 188.18 22.15 C 185.41 30.35 184.90 39.22 186.30 47.74 C 185.07 46.12 183.81 44.53 182.54 42.94 C 183.74 44.75 185.00 46.50 186.32 48.22 C 188.12 56.92 188.66 66.05 186.70 74.77 C 185.62 79.89 182.99 84.63 178.85 87.89 C 175.05 91.00 169.35 93.04 164.78 90.36 C 161.71 88.71 160.46 83.81 163.72 81.68 C 167.18 79.24 172.70 83.25 170.25 87.22 C 167.99 89.60 165.43 86.77 163.17 85.93 C 164.25 87.85 165.47 90.18 168.00 90.29 C 173.65 91.09 178.15 85.81 179.52 80.83 C 181.22 72.48 175.95 64.94 171.74 58.24 C 166.62 52.20 163.23 44.83 161.74 37.07 C 159.67 29.11 160.41 20.05 165.21 13.20 C 169.55 7.26 177.03 4.56 184.20 4.51 C 184.96 3.00 185.73 1.48 186.57 0.00 Z" />
<path fill="#748e9c" d=" M 214.72 0.00 L 232.31 0.00 C 234.12 4.67 234.55 9.67 233.98 14.63 C 235.26 14.82 238.88 15.39 237.42 17.42 C 236.48 19.16 234.62 17.76 233.19 17.59 C 232.07 20.89 230.74 24.11 229.35 27.31 C 229.77 23.14 230.62 18.52 228.17 14.77 C 224.25 8.05 216.04 5.18 208.57 5.84 C 210.66 3.94 212.64 1.92 214.72 0.00 Z" />
<path fill="#748e9c" d=" M 232.63 0.00 L 248.75 0.00 C 248.01 4.41 243.66 8.14 239.10 6.82 C 235.60 6.25 233.92 2.91 232.63 0.00 Z" />
<path fill="#748e9c" d=" M 271.65 0.00 L 300.00 0.00 L 300.00 3.79 C 294.35 4.48 288.62 5.87 282.93 4.69 C 278.81 4.16 275.17 2.06 271.65 0.00 Z" />
<path fill="#748e9c" d=" M 261.78 1.69 C 268.51 0.17 276.68 2.39 280.34 8.59 C 282.36 11.77 281.06 17.22 276.98 17.88 C 273.30 18.74 270.21 14.26 271.84 11.02 C 272.78 9.96 273.93 9.10 275.02 8.20 C 277.53 9.56 278.16 12.23 278.63 14.82 C 281.60 11.39 278.48 6.53 274.82 5.20 C 269.22 3.23 262.47 5.09 258.76 9.76 C 254.38 15.23 252.76 22.28 250.96 28.90 C 250.27 36.50 247.10 43.63 243.14 50.06 C 238.52 57.34 231.62 63.63 223.10 65.76 C 215.90 67.61 208.43 64.69 202.82 60.22 C 203.38 60.07 204.52 59.78 205.08 59.63 C 202.07 60.56 200.78 57.50 199.52 55.43 C 197.19 51.68 197.99 46.21 201.62 43.56 C 204.24 41.36 207.85 41.87 211.03 41.69 C 216.83 41.62 222.73 38.90 226.02 34.02 C 229.58 28.96 232.66 23.49 237.13 19.14 C 243.39 11.17 251.62 3.89 261.78 1.69 Z" />
<path fill="#748e9c" d=" M 275.79 25.92 C 280.59 15.89 290.35 9.60 300.00 4.84 L 300.00 10.12 C 295.30 14.44 290.70 19.23 288.62 25.41 C 285.04 35.45 287.60 47.54 295.76 54.62 C 297.19 53.21 298.63 51.82 300.00 50.35 L 300.00 55.85 C 287.82 68.06 275.19 79.83 262.92 91.96 C 260.85 93.93 255.52 97.77 254.68 93.00 C 254.69 89.78 257.61 87.76 259.58 85.59 C 264.47 81.20 266.31 74.60 267.61 68.40 C 270.42 54.27 269.39 39.17 275.79 25.92 Z" />
<path fill="#748e9c" d=" M 138.89 13.99 C 137.66 10.83 140.51 8.56 142.93 7.23 C 144.14 7.91 145.38 8.54 146.52 9.33 C 147.68 11.96 147.95 14.98 149.73 17.32 C 150.97 19.30 153.18 21.43 152.02 23.98 C 150.44 29.33 144.24 30.20 140.05 32.71 C 142.33 29.17 142.43 25.04 141.88 21.01 C 141.70 17.63 145.69 17.07 148.16 16.37 C 145.08 16.18 140.71 17.24 138.89 13.99 Z" />
<path fill="#748e9c" d=" M 193.52 14.48 C 197.39 9.53 203.85 7.31 209.99 7.45 C 215.61 7.39 221.81 8.98 225.40 13.61 C 229.44 18.66 229.05 26.26 225.42 31.43 C 222.04 36.50 216.07 39.47 210.04 39.73 C 207.37 40.00 204.45 39.68 202.07 41.16 C 197.36 44.03 194.24 49.43 194.20 54.96 C 194.14 58.58 196.04 61.78 197.77 64.82 C 191.46 57.73 187.42 48.56 187.15 39.01 C 186.90 30.53 188.10 21.34 193.52 14.48 Z" />
<path fill="#748e9c" d=" M 234.90 9.89 C 236.45 8.18 239.23 6.51 241.06 8.85 C 243.44 11.23 241.16 14.49 238.58 15.48 L 238.72 14.26 C 237.53 14.10 236.35 13.94 235.17 13.79 C 235.08 12.49 234.98 11.19 234.90 9.89 Z" />
<path fill="#748e9c" d=" M 148.20 11.15 C 151.55 11.32 146.60 14.12 148.20 11.15 Z" />
<path fill="#ffffff" d=" M 288.62 25.41 C 290.70 19.23 295.30 14.44 300.00 10.12 L 300.00 50.35 C 298.63 51.82 297.19 53.21 295.76 54.62 C 287.60 47.54 285.04 35.45 288.62 25.41 Z" />
<path fill="#748e9c" d=" M 256.15 17.09 C 257.79 11.45 266.06 9.97 270.02 14.05 C 274.05 17.60 273.55 25.09 268.64 27.61 C 264.33 29.71 259.44 27.82 254.88 28.61 C 256.23 24.90 255.44 20.90 256.15 17.09 Z" />
<path fill="#748e9c" d=" M 126.01 21.92 C 128.07 19.68 131.30 19.55 134.12 19.24 C 136.22 20.67 138.03 22.46 139.68 24.39 C 139.59 26.85 140.16 29.59 138.62 31.74 C 137.28 34.02 134.58 34.73 132.34 35.79 C 130.15 35.02 127.60 34.75 125.98 32.91 C 124.76 31.49 124.19 29.65 123.38 27.99 C 124.14 25.93 124.67 23.71 126.01 21.92 Z" />
<path fill="#ffffff" d=" M 279.09 32.90 C 280.41 27.46 284.57 23.44 288.78 20.06 C 281.71 32.10 280.34 46.67 282.70 60.24 C 278.80 51.80 276.11 42.06 279.09 32.90 Z" />
<path fill="#748e9c" d=" M 112.17 24.17 C 115.23 22.44 119.45 25.49 118.70 28.93 C 118.44 31.69 118.10 34.47 118.57 37.23 C 115.46 36.45 111.95 35.88 109.79 33.27 C 107.20 30.46 108.63 25.45 112.17 24.17 Z" />
<path fill="#748e9c" d=" M 151.94 27.09 C 151.29 25.72 153.29 23.73 154.68 24.34 C 155.46 25.76 153.32 27.60 151.94 27.09 Z" />
<path fill="#748e9c" d=" M 155.19 27.12 C 157.15 26.55 158.45 28.39 159.06 29.97 C 160.31 33.23 160.95 36.71 161.15 40.19 C 158.92 37.32 156.33 34.75 154.08 31.91 C 152.69 30.39 153.56 28.06 155.19 27.12 Z" />
<path fill="#748e9c" d=" M 120.16 30.35 C 121.71 29.60 122.19 32.09 120.68 32.38 C 119.10 33.16 118.66 30.65 120.16 30.35 Z" />
<path fill="#748e9c" d=" M 104.21 32.73 C 106.52 29.17 108.57 33.96 109.97 35.64 C 108.02 34.73 106.09 33.77 104.21 32.73 Z" />
<path fill="#748e9c" d=" M 118.93 34.79 C 121.21 30.42 125.89 36.15 128.59 37.39 C 125.43 36.76 121.19 37.66 118.93 34.79 Z" />
<path fill="#748e9c" d=" M 133.07 48.93 C 131.18 41.70 136.28 33.03 144.01 32.32 C 150.63 31.28 156.67 35.85 159.49 41.55 C 163.37 47.99 163.20 55.70 163.65 62.95 C 162.27 60.86 160.97 58.42 158.44 57.57 C 152.77 55.41 146.68 57.62 140.82 56.96 C 139.17 57.79 137.39 58.92 135.63 57.66 C 136.75 57.45 139.00 57.01 140.12 56.80 C 137.20 54.82 134.01 52.54 133.07 48.93 Z" />
<path fill="#748e9c" d=" M 128.93 38.23 C 131.59 37.88 133.83 36.28 136.19 35.15 C 133.36 38.75 131.21 42.88 130.44 47.42 C 129.44 51.65 128.00 56.91 123.31 58.33 C 116.18 60.54 108.42 53.12 110.00 45.93 C 111.08 42.12 114.15 38.70 118.08 37.78 C 121.70 37.24 125.30 38.58 128.93 38.23 Z" />
<path fill="#748e9c" d=" M 60.22 59.82 C 59.82 57.22 63.00 55.41 65.15 56.74 C 67.68 58.20 65.90 61.42 65.94 63.67 C 64.00 62.64 60.26 62.66 60.22 59.82 Z" />
<path fill="#748e9c" d=" M 187.32 76.31 C 189.53 69.91 188.47 63.07 188.99 56.46 C 191.19 61.75 193.34 67.35 197.77 71.24 C 203.86 76.75 212.41 78.79 217.97 85.03 C 224.54 91.74 226.03 103.48 219.93 110.97 C 213.10 119.39 200.39 123.43 190.32 118.71 C 184.39 115.96 181.37 109.34 181.48 103.03 C 181.58 93.84 184.26 84.90 187.32 76.31 Z" />
<path fill="#748e9c" d=" M 147.67 59.65 C 150.47 59.09 153.26 58.50 156.05 57.91 C 153.24 60.17 151.68 63.41 150.03 66.52 C 146.48 65.99 146.07 62.27 147.67 59.65 Z" />
<path fill="#748e9c" d=" M 137.27 61.26 C 139.22 57.62 144.00 58.67 147.39 58.58 C 145.35 60.71 144.14 63.40 142.64 65.90 C 139.88 68.19 135.72 64.39 137.27 61.26 Z" />
<path fill="#748e9c" d=" M 55.11 62.33 C 55.73 62.60 56.35 62.86 56.97 63.13 C 56.77 64.02 56.57 64.90 56.37 65.79 C 57.69 68.04 59.23 70.14 60.87 72.17 C 57.36 71.51 54.13 69.76 52.67 66.39 C 53.67 65.15 54.57 63.84 55.11 62.33 Z" />
<path fill="#748e9c" d=" M 58.42 67.05 C 57.59 64.60 60.51 63.53 62.06 62.42 C 68.25 64.98 72.58 70.26 77.64 74.42 C 79.36 75.95 81.76 76.17 83.90 76.73 C 80.97 78.08 78.60 80.25 76.56 82.70 C 73.90 85.87 68.53 87.85 65.04 84.91 C 61.62 82.23 61.48 76.63 64.52 73.62 C 65.87 72.68 67.47 72.22 68.98 71.63 C 65.20 71.22 59.45 71.93 58.42 67.05 Z" />
<path fill="#748e9c" d=" M 227.92 64.92 C 231.36 62.12 236.92 61.47 240.43 64.49 C 245.81 68.74 246.68 77.73 241.67 82.60 C 238.30 86.44 232.70 86.98 227.98 85.95 C 222.96 85.16 218.52 82.56 214.27 79.95 C 216.17 79.47 218.61 79.73 220.03 78.08 C 223.65 74.31 223.89 68.37 227.92 64.92 Z" />
<path fill="#748e9c" d=" M 154.47 69.02 C 153.83 65.86 158.27 63.01 160.66 65.44 C 161.39 66.41 161.81 67.56 162.34 68.65 C 164.84 68.73 168.45 69.61 167.80 72.90 C 166.69 78.09 160.03 76.54 156.16 77.45 C 155.62 74.64 154.76 71.88 154.47 69.02 Z" />
<path fill="#748e9c" d=" M 94.52 66.57 C 97.97 64.19 102.12 65.95 105.49 67.53 C 106.50 69.64 107.68 71.71 108.23 74.01 C 108.17 78.78 104.11 83.70 99.05 83.37 C 94.02 82.94 90.93 78.30 86.30 76.82 C 89.94 74.13 91.00 69.31 94.52 66.57 Z" />
<path fill="#748e9c" d=" M 115.56 66.88 C 126.41 65.09 138.19 66.21 147.43 72.62 C 161.81 81.98 167.21 102.37 159.64 117.71 C 154.64 126.67 144.38 132.66 134.07 132.10 C 121.27 131.53 108.31 120.52 109.33 106.97 C 109.10 94.94 123.02 85.14 134.17 89.81 C 141.52 92.68 144.30 103.84 138.03 109.13 C 135.02 112.03 130.67 111.40 126.95 110.68 C 130.24 110.65 134.10 111.48 136.78 109.05 C 142.65 104.47 141.50 94.12 134.95 90.73 C 128.87 87.47 121.14 89.58 116.27 94.09 C 109.60 100.01 108.34 110.56 112.50 118.27 C 115.31 123.86 120.69 127.65 126.27 130.14 C 129.73 131.09 133.40 130.87 136.95 130.76 C 146.92 129.76 155.56 122.19 158.83 112.85 C 164.16 98.92 159.03 81.72 146.50 73.45 C 135.76 66.01 121.55 65.10 109.33 69.04 C 113.31 73.55 116.18 79.65 122.15 81.88 C 125.11 83.29 128.28 82.15 131.24 81.40 C 128.34 82.82 125.10 84.29 121.84 83.11 C 116.81 81.43 111.61 80.01 106.24 80.69 C 107.09 78.83 108.23 77.03 108.52 74.96 C 108.57 72.28 107.00 69.94 105.95 67.59 C 109.07 69.67 112.36 67.42 115.56 66.88 Z" />
<path fill="#748e9c" d=" M 196.77 66.52 C 198.79 67.64 200.74 69.02 203.04 69.53 C 207.33 70.33 211.72 69.13 216.03 69.82 C 219.16 70.40 220.83 75.04 218.14 77.11 C 216.20 78.15 213.82 77.83 211.83 77.10 C 206.13 74.68 201.08 70.93 196.77 66.52 Z" />
<path fill="#748e9c" d=" M 45.11 82.91 C 42.22 77.92 46.09 70.66 51.96 70.66 C 55.93 70.93 59.55 72.93 63.51 73.38 C 61.50 76.52 61.22 80.30 59.75 83.63 C 56.75 89.04 47.61 88.57 45.11 82.91 Z" />
<path fill="#748e9c" d=" M 283.08 75.08 C 288.18 72.11 294.46 71.84 300.00 73.66 L 300.00 114.72 C 295.47 113.33 290.73 112.91 286.13 111.88 C 279.52 110.32 275.05 104.13 273.38 97.84 C 270.97 89.22 275.21 79.33 283.08 75.08 Z" />
<path fill="#748e9c" d=" M 227.93 88.41 C 233.95 89.11 239.43 86.58 245.02 84.90 C 249.71 83.78 252.56 90.20 249.34 93.37 C 246.57 94.57 243.53 93.36 240.88 92.41 C 236.68 90.71 232.37 89.30 227.93 88.41 Z" />
<path fill="#748e9c" d=" M 64.53 90.01 C 66.12 85.39 71.91 86.91 75.57 85.27 C 73.61 88.26 71.29 91.25 67.78 92.47 C 66.64 91.73 65.59 90.85 64.53 90.01 Z" />
<path fill="#748e9c" d=" M 173.77 94.07 C 177.19 90.85 180.84 87.86 184.03 84.38 C 182.35 88.78 180.78 93.88 176.64 96.60 C 174.84 97.88 172.42 95.99 173.77 94.07 Z" />
<path fill="#748e9c" d=" M 220.84 86.27 C 225.64 89.03 230.52 91.77 235.87 93.36 C 243.75 95.79 252.24 97.07 259.20 101.80 C 267.38 107.45 274.12 115.92 275.85 125.90 C 276.72 130.39 276.25 135.00 275.42 139.46 C 264.94 138.86 254.41 139.27 244.04 140.88 C 237.75 142.10 231.09 138.58 228.20 132.95 C 226.21 128.98 222.55 125.76 218.06 125.10 C 214.22 124.19 210.50 125.90 207.23 127.72 C 215.40 120.92 224.04 112.88 226.05 101.96 C 227.22 96.14 224.17 90.76 220.84 86.27 Z" />
<path fill="#748e9c" d=" M 58.61 89.49 C 61.79 88.67 63.99 92.38 66.65 93.51 C 63.80 93.79 56.08 94.60 58.61 89.49 Z" />
<path fill="#748e9c" d=" M 59.03 96.05 C 63.31 94.55 67.95 94.07 71.93 91.73 C 68.78 97.24 70.79 104.14 67.38 109.50 C 65.85 112.07 63.03 113.98 59.95 113.76 C 55.37 113.77 51.79 109.32 51.62 104.97 C 51.94 100.82 55.20 97.36 59.03 96.05 Z" />
<path fill="#748e9c" d=" M 257.06 97.10 C 262.89 99.86 268.99 102.12 274.44 105.61 C 285.22 112.81 295.20 122.27 300.00 134.57 L 300.00 146.23 C 293.53 142.71 286.31 140.90 279.07 139.81 C 279.51 132.61 279.45 125.15 276.59 118.39 C 272.96 109.15 265.26 102.31 257.06 97.10 Z" />
<path fill="#748e9c" d=" M 166.64 118.45 C 174.34 116.64 182.45 117.79 189.84 120.37 C 195.72 122.45 202.15 123.00 208.21 121.29 C 206.09 123.95 204.17 126.83 203.19 130.12 C 200.08 138.95 201.96 148.94 197.29 157.33 C 190.24 170.66 170.35 173.05 159.02 163.91 C 150.07 157.21 146.45 144.64 150.15 134.14 C 152.81 126.78 158.85 120.29 166.64 118.45 Z" />
<path fill="#748e9c" d=" M 207.18 132.11 C 210.46 127.50 217.59 126.37 222.07 129.86 C 225.62 132.78 226.82 137.67 230.57 140.42 C 234.58 143.73 240.02 144.77 245.08 143.87 C 255.30 142.36 265.69 141.81 276.01 142.69 C 284.36 143.54 292.79 145.52 300.00 149.99 L 300.00 156.15 C 293.94 154.99 287.61 155.18 281.86 157.57 C 270.04 162.28 257.76 166.41 244.96 167.14 C 238.32 167.56 231.53 166.40 225.59 163.36 C 220.99 161.24 217.12 157.96 212.98 155.12 C 221.86 165.71 236.61 169.43 249.94 167.92 C 256.26 167.40 262.29 165.37 268.46 164.05 C 257.74 169.38 246.06 173.27 234.00 173.44 C 226.61 173.39 218.79 171.75 213.01 166.87 C 207.85 162.56 205.35 155.89 204.39 149.40 C 203.72 143.58 203.64 137.10 207.18 132.11 Z" />
<path fill="#748e9c" d=" M 200.67 157.05 C 202.24 160.93 204.25 164.75 207.56 167.41 C 211.96 171.03 216.45 175.23 217.90 180.96 C 219.38 186.14 218.04 192.37 213.54 195.66 C 207.32 200.73 196.84 199.28 192.52 192.45 C 189.05 185.91 191.03 177.77 194.78 171.78 C 197.65 167.28 199.86 162.36 200.67 157.05 Z" />
<path fill="#748e9c" d=" M 267.71 167.97 C 277.33 162.46 288.58 155.81 300.00 159.77 L 300.00 162.48 C 295.40 171.72 284.41 177.93 274.17 174.79 C 270.74 174.08 269.04 170.86 267.71 167.97 Z" />
<path fill="#748e9c" d=" M 179.76 176.86 C 184.89 172.49 189.90 167.98 194.88 163.44 C 189.98 170.26 190.51 178.96 187.24 186.37 C 185.71 190.50 179.11 192.67 176.38 188.61 C 174.29 184.51 176.48 179.64 179.76 176.86 Z" />
<path fill="#748e9c" d=" M 161.87 179.85 C 160.09 175.60 163.19 169.97 167.96 169.84 C 171.70 169.90 174.97 172.15 178.64 172.73 C 176.77 175.75 176.21 179.37 174.38 182.39 C 171.06 186.68 163.48 184.86 161.87 179.85 Z" />
<path fill="#748e9c" d=" M 297.21 174.97 C 296.89 172.47 298.95 170.57 300.00 168.53 L 300.00 179.83 C 299.03 178.23 297.80 176.76 297.21 174.97 Z" />
<path fill="#748e9c" d=" M 240.55 174.40 C 246.33 172.82 252.72 172.32 258.35 174.76 C 263.07 176.82 266.35 181.91 265.94 187.11 C 265.73 193.23 260.95 198.75 255.07 200.21 C 248.62 201.41 242.14 197.68 238.47 192.51 C 233.94 186.86 232.12 179.15 225.83 174.97 C 230.73 175.49 235.74 175.71 240.55 174.40 Z" />
<path fill="#748e9c" d=" M 216.78 173.29 C 221.71 176.29 228.41 178.69 229.87 184.97 C 231.14 188.28 227.12 191.41 224.17 189.72 C 221.48 188.60 221.76 185.25 221.17 182.87 C 220.83 179.25 218.80 176.19 216.78 173.29 Z" />
<path fill="#748e9c" d=" M 231.16 182.36 C 233.13 186.29 236.09 190.32 235.70 194.95 C 235.44 197.59 231.78 199.00 229.94 197.07 C 227.97 194.84 230.19 192.11 230.95 189.87 C 232.15 187.53 231.06 184.81 231.16 182.36 Z" />
<path fill="#748e9c" d=" M 184.53 191.57 C 186.48 190.38 187.71 188.37 189.19 186.69 C 187.95 191.75 185.81 197.84 180.06 199.11 C 176.75 200.39 176.43 196.10 175.00 194.21 L 174.88 196.06 L 172.66 195.97 C 173.49 193.56 175.54 192.30 177.90 191.65 C 177.40 192.37 176.40 193.81 175.90 194.53 C 178.80 193.63 181.78 192.90 184.53 191.57 Z" />
<path fill="#748e9c" d=" M 278.01 200.10 C 279.71 199.21 281.57 197.46 283.61 198.49 C 285.17 199.14 285.35 201.04 285.98 202.39 C 287.69 202.67 290.06 202.17 290.99 204.09 C 292.40 206.01 291.10 208.93 288.98 209.73 C 286.20 211.37 282.95 211.35 279.85 211.08 C 278.96 207.47 278.17 203.82 278.01 200.10 Z" />
<path fill="#748e9c" d=" M 246.07 203.62 C 250.36 203.58 253.99 201.19 257.94 199.94 C 264.65 198.12 270.85 205.70 269.02 212.07 C 267.80 218.54 259.16 222.09 253.89 218.00 C 249.08 214.58 249.69 207.90 246.07 203.62 Z" />
<path fill="#748e9c" d=" M 250.52 216.87 C 252.68 218.23 254.84 219.67 257.30 220.47 C 263.90 222.74 271.23 221.48 277.67 224.41 C 284.29 227.01 288.45 234.06 288.53 241.02 C 288.24 243.97 288.11 246.94 287.69 249.87 C 285.42 256.57 279.62 261.71 272.84 263.56 C 267.25 265.91 261.18 263.56 256.26 260.73 C 250.82 257.49 247.49 251.38 247.36 245.09 C 246.40 235.42 253.25 226.58 250.52 216.87 Z" />
<path fill="#748e9c" d=" M 293.27 226.28 C 294.76 223.40 297.46 221.49 300.00 219.60 L 300.00 261.39 C 295.14 259.93 290.23 258.20 285.07 258.67 C 287.77 254.56 289.40 249.75 288.81 244.79 C 290.32 238.64 290.15 231.96 293.27 226.28 Z" />
</svg>
